<svg width="20" height="20" viewBox="0 0 20 20" fill="none" xmlns="http://www.w3.org/2000/svg">
<path d="M16.4283 10C16.0338 10 15.7141 10.3198 15.7141 10.7143V17.8571C15.7141 18.2515 15.3943 18.5713 14.9998 18.5713H2.14283C1.74833 18.5713 1.42854 18.2515 1.42854 17.8571V3.57154C1.42854 3.17704 1.74833 2.85725 2.14283 2.85725H10.7141C11.1086 2.85725 11.4284 2.53746 11.4284 2.14296C11.4284 1.74846 11.1086 1.42871 10.7141 1.42871H2.14283C0.959376 1.42871 0 2.38809 0 3.57154V17.8571C0 19.0405 0.959376 19.9999 2.14283 19.9999H14.9998C16.1833 19.9999 17.1426 19.0405 17.1426 17.8571V10.7143C17.1426 10.3198 16.8228 10 16.4283 10Z" fill="#BF1212"/>
<path d="M19.1992 0.801404C18.6863 0.288465 17.9907 0.000354842 17.2654 0.000438547C16.5396 -0.00165406 15.8433 0.286958 15.3319 0.801865L5.92337 10.2096C5.84531 10.2882 5.78643 10.3838 5.75123 10.4888L4.32269 14.7745C4.19801 15.1488 4.40037 15.5532 4.77465 15.6779C4.84727 15.7021 4.92331 15.7144 4.99982 15.7145C5.07649 15.7144 5.1527 15.7021 5.22553 15.6781L9.51118 14.2495C9.61644 14.2144 9.71207 14.1552 9.79046 14.0767L19.1989 4.66825C20.2668 3.60052 20.2669 1.86926 19.1992 0.801404Z" fill="#BF1212"/>
</svg>
