<svg width="16" height="15" viewBox="0 0 16 15" fill="none" xmlns="http://www.w3.org/2000/svg">
<path d="M0.00195312 2.85714C0.00195312 2.09938 0.265345 1.37266 0.734186 0.836838C1.20303 0.30102 1.83891 0 2.50195 0H17.502C18.165 0 18.8009 0.30102 19.2697 0.836838C19.7386 1.37266 20.002 2.09938 20.002 2.85714V17.1429C20.002 17.9006 19.7386 18.6273 19.2697 19.1632C18.8009 19.699 18.165 20 17.502 20H2.50195C1.83891 20 1.20303 19.699 0.734186 19.1632C0.265345 18.6273 0.00195313 17.9006 0.00195312 17.1429V2.85714V2.85714ZM1.25195 15.7143V17.1429C1.25195 17.5217 1.38365 17.8851 1.61807 18.153C1.85249 18.4209 2.17043 18.5714 2.50195 18.5714H17.502C17.8335 18.5714 18.1514 18.4209 18.3858 18.153C18.6203 17.8851 18.752 17.5217 18.752 17.1429V12.1429L14.0307 9.36143C13.9135 9.29432 13.7808 9.27104 13.6513 9.29488C13.5219 9.31872 13.4023 9.38848 13.3095 9.49429L8.67195 14.7943L5.34695 12.2629C5.2269 12.1715 5.08291 12.1304 4.93938 12.1466C4.79585 12.1627 4.66162 12.2351 4.55945 12.3514L1.25195 15.7143ZM7.50195 6.42857C7.50195 5.86025 7.30441 5.31521 6.95278 4.91334C6.60115 4.51148 6.12423 4.28571 5.62695 4.28571C5.12967 4.28571 4.65276 4.51148 4.30113 4.91334C3.9495 5.31521 3.75195 5.86025 3.75195 6.42857C3.75195 6.99689 3.9495 7.54194 4.30113 7.9438C4.65276 8.34566 5.12967 8.57143 5.62695 8.57143C6.12423 8.57143 6.60115 8.34566 6.95278 7.9438C7.30441 7.54194 7.50195 6.99689 7.50195 6.42857Z" fill="#BF1212"/>
</svg>
