<svg width="20" height="20" viewBox="0 0 20 20" fill="none" xmlns="http://www.w3.org/2000/svg">
<g clip-path="url(#clip0)">
<path d="M17.585 4.90067L15.0992 2.41486L10.4705 7.08237L12.9567 9.56848L17.585 4.90067Z" fill="#BF1212"/>
<path d="M8.24324 11.028C8.04198 11.5112 8.52721 11.9958 9.01015 11.7939L11.9858 10.2546L9.78118 8.05005L8.24324 11.028Z" fill="#BF1212"/>
<path d="M19.8284 2.65732C20.0573 2.42844 20.0573 2.0575 19.8284 1.82861L18.1713 0.171661C17.9424 -0.0572205 17.5715 -0.0572205 17.3426 0.171661L15.928 1.5863L18.4136 4.07211L19.8284 2.65732Z" fill="#BF1212"/>
<path d="M1.75781 16.4453H2.34375V19.4141C2.34375 19.6509 2.48627 19.865 2.70538 19.9553C2.9213 20.0455 3.17474 19.9974 3.34396 19.8283L6.72699 16.4453H13.5547C14.5239 16.4453 15.3125 15.6567 15.3125 14.6875V8.86978L13.4642 10.7181C13.3029 10.8795 13.1146 11.0065 12.9034 11.0951L9.54865 12.8346C9.24362 12.9663 9.01474 13.0127 8.78128 13.0127C8.60687 13.0127 8.43872 12.9791 8.27622 12.9297H4.10156C3.77762 12.9297 3.51563 12.6675 3.51563 12.3437C3.51563 12.0198 3.77762 11.7578 4.10156 11.7578H7.06863C6.95297 11.3742 7.00256 10.9587 7.16202 10.5774L8.97019 7.06573C9.02161 6.93588 9.14871 6.74698 9.30954 6.5863L11.1693 4.72656H1.75781C0.788574 4.72656 0 5.51514 0 6.48437V14.6875C0 15.6567 0.788574 16.4453 1.75781 16.4453V16.4453Z" fill="#BF1212"/>
</g>
<defs>
<clipPath id="clip0">
<rect width="20" height="20" fill="white"/>
</clipPath>
</defs>
</svg>
