<svg width="91" height="92" viewBox="0 0 91 92" fill="none" xmlns="http://www.w3.org/2000/svg">
<path d="M0 45.1581H10.7059V91.1581H0V45.1581Z" fill="#BF1212"/>
<path d="M72.1362 47.173C73.5419 47.6266 75.0263 47.864 76.5471 47.864C84.5163 47.864 91 41.3091 91 33.2523C91 29.8376 88.8765 25.5502 84.5078 20.145C81.4907 16.4119 78.5134 13.5495 78.3881 13.4293L76.5469 11.6653C74.7731 13.3653 74.6924 13.4405 74.4696 13.6593C78.3794 19.4853 80.2941 24.5146 80.2941 28.9229C80.2941 36.1815 77.1355 42.7073 72.1362 47.173Z" fill="#BF1212"/>
<path d="M56.2059 47.864C66.5365 47.864 74.9412 39.367 74.9412 28.9228C74.9412 24.564 72.0365 18.7599 66.3078 11.6719C62.2322 6.62908 58.2159 2.76797 58.0469 2.60579L56.2059 0.841919L54.3648 2.60579C54.1958 2.76779 50.1795 6.62908 46.104 11.6719C40.3753 18.7599 37.4706 24.564 37.4706 28.9228C37.4706 39.367 45.8751 47.864 56.2059 47.864Z" fill="#BF1212"/>
<path d="M80.5588 55.8903L61.5588 69.5112V74.9229H37.4706V69.5112H52.1912C54.4086 69.5112 56.2059 67.6941 56.2059 65.4523C56.2059 63.2106 54.4086 61.3935 52.1912 61.3935H41.1693L40.0645 59.1593C36.8784 52.7175 28.635 50.8988 23.0838 55.3888L22.3507 55.9817H16.0588V85.7465H26.1928C26.703 85.8424 36.3756 91.4692 50.1399 89.674C57.8958 88.6625 65.2158 85.5083 71.3087 80.5522L88.5295 66.5581C90.0915 65.2887 91 63.3719 91 61.3455C91 55.9168 84.9393 52.75 80.5588 55.8903Z" fill="#BF1212"/>
</svg>
