<svg width="86" height="86" viewBox="0 0 86 86" fill="none" xmlns="http://www.w3.org/2000/svg">
<g clip-path="url(#clip0)">
<path d="M77.4733 57.2418H74.0459C74.1365 56.7553 74.3409 56.1689 74.758 55.5223C76.0422 53.5322 76.3169 51.7746 76.559 50.2239C76.7118 49.2466 76.8561 48.3237 77.2484 47.2587C77.596 46.3154 78.2647 45.5492 78.9494 44.9653L81.3187 50.8057L86 48.9065L77.529 27.9598L75.471 28.3763C75.2361 28.4238 69.6773 29.6147 66.2015 36.0511C63.6646 40.749 57.9527 44.3967 51.0039 45.8583L49.6188 40.777L47.1489 41.4999C43.0695 42.6938 40.698 43.7694 37.048 45.9262C37.0283 45.952 37.0079 45.9788 36.9882 46.0043L27.3932 58.889H19.5176C19.5176 58.889 15.105 52.8739 12.5838 49.5179C11.1783 50.0538 9.94296 50.8326 8.86657 51.8603C6.14343 54.4602 5.03488 58.7622 5.91054 62.6978L0 66.6285L6.98845 79.2672H10.3784L12.9977 76.3195C15.6412 73.3448 19.4395 71.6388 23.4189 71.6388C26.7757 71.6388 30.0261 72.8556 32.5716 75.0652C35.4686 77.5798 38.2854 78.9604 40.9346 79.2547C43.9764 79.5928 45.8105 78.8485 48.2661 78.0611C50.127 77.4643 51.5488 76.8515 53.988 77.1678C55.0186 77.3013 55.9567 77.3651 56.8162 77.3651C61.6368 77.365 63.9473 75.3546 65.7679 72.3675C66.3966 71.3357 67.2752 70.7423 68.1116 70.4787C70.3023 69.7883 72.3153 72.3574 72.3153 72.3574L77.0881 70.0114C77.9373 72.3486 78.3688 74.793 78.3688 77.2883H83.4207C83.4207 73.917 82.7858 70.6203 81.5341 67.49L77.4733 57.2418Z" fill="#BF1212"/>
<path d="M22.0778 53.837H24.8336L32.9735 42.9381C36.4095 38.4427 41.1153 32.2861 41.1153 24.3212C41.1153 14.5837 33.1933 6.66162 23.4557 6.66162C13.7182 6.66162 5.79602 14.5837 5.79602 24.3212C5.79602 32.2861 10.5017 38.4427 13.9378 42.9381L22.0778 53.837ZM15.0469 24.3212C15.0469 19.6845 18.8191 15.9123 23.4557 15.9123C28.0924 15.9123 31.8646 19.6845 31.8646 24.3212C31.8646 28.9578 28.0924 32.73 23.4557 32.73C18.8191 32.73 15.0469 28.958 15.0469 24.3212Z" fill="#BF1212"/>
<path d="M26.5679 25.6118C27.278 23.8987 26.4649 21.9343 24.7518 21.2242C23.0387 20.5141 21.0743 21.3273 20.3642 23.0404C19.6541 24.7535 20.4672 26.7178 22.1803 27.4279C23.8934 28.138 25.8578 27.3249 26.5679 25.6118Z" fill="#BF1212"/>
</g>
<defs>
<clipPath id="clip0">
<rect width="86" height="86" fill="white"/>
</clipPath>
</defs>
</svg>
