<svg width="82" height="82" viewBox="0 0 82 82" fill="none" xmlns="http://www.w3.org/2000/svg">
<g clip-path="url(#clip0)">
<path d="M40.4157 39.4996C45.8422 39.4996 50.5412 37.5534 54.3806 33.7134C58.2199 29.874 60.1662 25.1763 60.1662 19.7492C60.1662 14.3239 58.2199 9.6256 54.3799 5.785C50.5399 1.94627 45.8416 0 40.4157 0C34.9885 0 30.2908 1.94627 26.4514 5.78562C22.6121 9.62498 20.6652 14.3233 20.6652 19.7492C20.6652 25.1763 22.6121 29.8747 26.4521 33.714C30.2921 37.5527 34.9904 39.4996 40.4157 39.4996Z" fill="#BF1212"/>
<path d="M74.9738 63.0538C74.863 61.456 74.6391 59.713 74.3094 57.8725C73.9765 56.0182 73.548 54.2652 73.035 52.6631C72.5051 51.0071 71.7844 49.3717 70.8935 47.8046C69.9689 46.178 68.8828 44.7616 67.6641 43.5961C66.3898 42.3768 64.8295 41.3965 63.0252 40.6814C61.2272 39.9701 59.2347 39.6098 57.1032 39.6098C56.2661 39.6098 55.4566 39.9532 53.8932 40.9711C52.931 41.5986 51.8055 42.3243 50.5493 43.1269C49.4751 43.8113 48.02 44.4526 46.2226 45.0332C44.469 45.6006 42.6885 45.8884 40.9312 45.8884C39.1738 45.8884 37.394 45.6006 35.6385 45.0332C33.843 44.4532 32.3878 43.812 31.3149 43.1275C30.0706 42.3324 28.9445 41.6067 27.9679 40.9705C26.4064 39.9526 25.5962 39.6091 24.7592 39.6091C22.6271 39.6091 20.6351 39.9701 18.8378 40.682C17.0347 41.3959 15.4738 42.3762 14.1982 43.5968C12.9802 44.7629 11.8935 46.1786 10.9701 47.8046C10.0798 49.3717 9.35913 51.0065 8.82861 52.6637C8.31624 54.2659 7.8877 56.0182 7.55487 57.8725C7.22517 59.7105 7.00121 61.4541 6.89047 63.0557C6.78162 64.6247 6.72656 66.2531 6.72656 67.8979C6.72656 72.1783 8.08727 75.6435 10.7705 78.1991C13.4206 80.7209 16.9271 82.0003 21.1913 82.0003H60.6748C64.939 82.0003 68.4443 80.7216 71.095 78.1991C73.7789 75.6454 75.1396 72.1795 75.1396 67.8972C75.1389 66.245 75.0833 64.6153 74.9738 63.0538Z" fill="#BF1212"/>
</g>
<defs>
<clipPath id="clip0">
<rect width="82" height="82" fill="white"/>
</clipPath>
</defs>
</svg>
