<svg width="20" height="21" viewBox="0 0 20 21" fill="none" xmlns="http://www.w3.org/2000/svg">
<path d="M10 0.796387C6.00155 0.796387 2.66666 3.62725 2.66666 7.2417C2.66666 8.61678 3.1368 9.84295 4.03906 10.9919L9.4388 18.3974C9.70075 18.7574 10.2998 18.7567 10.5612 18.3974L15.9844 10.9667C16.8672 9.86983 17.3333 8.58182 17.3333 7.2417C17.3333 3.68775 14.0436 0.796387 10 0.796387ZM10 10.1714C8.16209 10.1714 6.66666 8.85705 6.66666 7.2417C6.66666 5.62635 8.16209 4.31201 10 4.31201C11.8379 4.31201 13.3333 5.62635 13.3333 7.2417C13.3333 8.85705 11.8379 10.1714 10 10.1714Z" fill="#BF1212"/>
<path d="M15.2117 14.261L11.8548 18.8738C10.9859 20.0645 9.00929 20.0606 8.14453 18.8749L4.78213 14.2622C1.82373 14.8634 0 15.9647 0 17.2807C0 19.5644 5.15236 20.7963 10 20.7963C14.8476 20.7963 20 19.5644 20 17.2807C20 15.9637 18.1737 14.8618 15.2117 14.261Z" fill="#BF1212"/>
</svg>
