<svg width="21" height="20" viewBox="0 0 21 20" fill="none" xmlns="http://www.w3.org/2000/svg">
<path d="M13.3585 2.28875C10.3073 -0.762225 5.34126 -0.762225 2.29008 2.28875C-0.760432 5.34039 -0.760432 10.3054 2.29008 13.3571C5.00724 16.0734 9.23907 16.3644 12.2883 14.2433C12.3524 14.5469 12.4993 14.8366 12.7354 15.0727L17.1789 19.5159C17.8264 20.1621 18.8728 20.1621 19.517 19.5159C20.1639 18.8691 20.1639 17.8227 19.517 17.1779L15.0736 12.7334C14.8387 12.4992 14.5484 12.3517 14.2448 12.2876C16.3673 9.23794 16.0763 5.00705 13.3585 2.28875ZM11.9556 11.9543C9.6776 14.2321 5.97028 14.2321 3.69298 11.9543C1.41634 9.67644 1.41634 5.97003 3.69298 3.69221C5.97028 1.41506 9.6776 1.41506 11.9556 3.69221C14.2335 5.97003 14.2335 9.67644 11.9556 11.9543Z" fill="#BF1212"/>
</svg>
