<svg width="20" height="20" viewBox="0 0 20 20" fill="none" xmlns="http://www.w3.org/2000/svg">
<g clip-path="url(#clip0)">
<path d="M13.3566 2.2888C10.3056 -0.762223 5.33978 -0.762223 2.28875 2.2888C-0.761615 5.34049 -0.761615 10.3056 2.28875 13.3573C5.00577 16.0737 9.23739 16.3647 12.2864 14.2436C12.3506 14.5471 12.4974 14.8368 12.7335 15.073L17.1768 19.5162C17.8243 20.1624 18.8706 20.1624 19.5149 19.5162C20.1617 18.8694 20.1617 17.823 19.5149 17.1782L15.0716 12.7336C14.8368 12.4995 14.5464 12.352 14.2429 12.2878C16.3653 9.23811 16.0743 5.00715 13.3566 2.2888ZM11.9538 11.9545C9.6759 14.2323 5.96877 14.2323 3.69157 11.9545C1.41504 9.67661 1.41504 5.97014 3.69157 3.69229C5.96877 1.4151 9.6759 1.4151 11.9538 3.69229C14.2316 5.97014 14.2316 9.67661 11.9538 11.9545Z" fill="#BF1212"/>
</g>
<defs>
<clipPath id="clip0">
<rect width="20" height="20" fill="white"/>
</clipPath>
</defs>
</svg>
