<svg width="20" height="20" viewBox="0 0 20 20" fill="none" xmlns="http://www.w3.org/2000/svg">
<g clip-path="url(#clip0)">
<path d="M9.99991 5.25484L2.86701 11.1352C2.86701 11.1435 2.86492 11.1557 2.86075 11.1723C2.85666 11.1888 2.85449 11.2008 2.85449 11.2093V17.1638C2.85449 17.3788 2.93309 17.5651 3.09025 17.722C3.24737 17.879 3.43342 17.958 3.64846 17.958H8.41189V13.1943H11.588V17.9582H16.3514C16.5663 17.9582 16.7527 17.8793 16.9096 17.722C17.0667 17.5653 17.1456 17.3788 17.1456 17.1638V11.2093C17.1456 11.1763 17.1411 11.1514 17.1331 11.1352L9.99991 5.25484Z" fill="#BF1212"/>
<path d="M19.862 9.79533L17.1454 7.53757V2.47619C17.1454 2.36048 17.1082 2.26532 17.0336 2.19085C16.9596 2.11646 16.8644 2.07927 16.7484 2.07927H14.3667C14.2508 2.07927 14.1557 2.11646 14.0812 2.19085C14.0069 2.26532 13.9697 2.36052 13.9697 2.47619V4.89519L10.9429 2.36443C10.6785 2.1494 10.3642 2.0419 10.0003 2.0419C9.63639 2.0419 9.32211 2.1494 9.0575 2.36443L0.137848 9.79533C0.0551624 9.86138 0.00984395 9.95028 0.00141463 10.0619C-0.00697125 10.1735 0.0219231 10.271 0.0881845 10.3536L0.857295 11.2716C0.923556 11.346 1.01028 11.3915 1.11782 11.4082C1.21711 11.4165 1.31639 11.3875 1.41567 11.3213L10 4.16327L18.5845 11.3213C18.6508 11.379 18.7374 11.4078 18.845 11.4078H18.8823C18.9896 11.3915 19.0762 11.3457 19.1428 11.2715L19.912 10.3536C19.9781 10.2708 20.0071 10.1735 19.9985 10.0618C19.99 9.95041 19.9445 9.86151 19.862 9.79533Z" fill="#BF1212"/>
</g>
<defs>
<clipPath id="clip0">
<rect width="20" height="20" fill="white"/>
</clipPath>
</defs>
</svg>
