<svg width="20" height="20" viewBox="0 0 20 20" fill="none" xmlns="http://www.w3.org/2000/svg">
<path d="M10.9066 20H16.3459C17.378 20 18.2427 19.6131 18.9121 18.869C19.5816 18.1548 20 17.2024 20 16.131V4.49405C20 3.42262 19.5816 2.47024 18.9121 1.75595C18.2427 1.04167 17.3501 0.625 16.3459 0.625H10.9066V3.06548H16.3459C17.1269 3.06548 17.7127 3.69048 17.7127 4.49405V16.131C17.7127 16.9345 17.1269 17.5893 16.3459 17.5893H10.9066V20ZM0 8.00595V12.6488C0 13.1845 0.41841 13.631 0.920502 13.631H5.99721V17.2917C5.99721 17.619 6.13668 17.8869 6.41562 18.0357C6.5272 18.0655 6.66667 18.0655 6.72245 18.0655C6.91771 18.0655 7.08508 18.006 7.22455 17.8571L13.7796 10.8631C14.0307 10.5952 14.0028 10.0595 13.7796 9.7619L7.22455 2.79762C7.00139 2.55952 6.72245 2.52976 6.41562 2.61905C6.13668 2.76786 5.99721 3.00595 5.99721 3.33333V7.02381H0.920502C0.41841 7.02381 0 7.47024 0 8.00595Z" fill="#BF1212"/>
</svg>
